<svg width="57" height="57" viewBox="0 0 57 57" fill="none" xmlns="http://www.w3.org/2000/svg">
<g clip-path="url(#clip0_32_143)">
<path d="M42.9456 32.6297C42.9456 22.4514 34.7164 14.2004 24.565 14.2004C14.4136 14.2004 6.18445 22.4514 6.18445 32.6297C6.18445 42.808 14.4136 51.059 24.565 51.059C34.7164 51.059 42.9456 42.808 42.9456 32.6297Z" fill="#89C8FD"/>
<path d="M24.565 14.2004C23.6216 14.2004 22.6945 14.2718 21.7896 14.4094C30.6238 15.7509 37.3943 23.3973 37.3943 32.6297C37.3943 41.8621 30.6238 49.5085 21.7896 50.85C22.6945 50.9876 23.6216 51.059 24.565 51.059C34.7164 51.059 42.9456 42.808 42.9456 32.6297C42.9456 22.4514 34.7164 14.2004 24.565 14.2004Z" fill="#60B6FF"/>
<path d="M22.1758 21.363C19.3444 23.1373 17.2206 25.976 18.8133 29.17C20.4061 32.3637 23.9454 31.1217 27.2194 30.6782C30.4934 30.2347 28.0158 40.3485 29.9623 42.8325C31.9089 45.3165 37.3947 40.3485 36.8641 37.1544C36.0779 32.4257 35.8023 30.7667 42.173 27.3957L42.1901 27.3893C40.0428 20.118 33.5426 14.7227 25.7159 14.2378L25.7151 14.2656C25.7151 14.2656 25.0071 19.5886 22.1758 21.363Z" fill="#BAEB6C"/>
<path d="M36.081 18.2671C36.0823 18.2679 36.0836 18.2692 36.0848 18.2701C36.0836 18.2692 36.0823 18.2684 36.081 18.2671Z" fill="#BAEB6C"/>
<path d="M38.3287 20.417C38.3287 20.4174 38.3292 20.4178 38.3296 20.4178C38.3292 20.4174 38.3292 20.4174 38.3287 20.417Z" fill="#BAEB6C"/>
<path d="M12.3543 40.9694C11.5041 39.6727 13.8586 36.6226 14.3893 34.3159C14.9203 32.0092 11.7348 32.1865 10.7615 31.388C9.78827 30.5895 8.46082 27.1296 7.48755 26.3311L7.33203 26.2085C6.59033 28.208 6.18445 30.3716 6.18445 32.63C6.18445 38.7217 9.13245 44.1221 13.6758 47.4772L13.6813 47.091C13.6813 47.091 14.3893 44.0746 12.3543 40.9694Z" fill="#BAEB6C"/>
<path d="M36.8641 37.1545C36.8603 37.1314 36.8565 37.1088 36.8526 37.0857C36.501 38.5063 35.9849 39.8619 35.3256 41.1309C36.3711 39.897 37.0697 38.3926 36.8641 37.1545Z" fill="#BAEB6C"/>
<path d="M25.716 14.2378L25.7151 14.2656C25.7151 14.2656 25.6562 14.7099 25.5041 15.3837C31.9495 17.8232 36.6685 23.7902 37.3179 30.9371C38.1301 29.8263 39.6156 28.7488 42.1731 27.3957L42.1902 27.3893C40.0428 20.118 33.5427 14.7227 25.716 14.2378Z" fill="#96D629"/>
<path d="M24.5398 56.4128C23.238 56.4128 21.9268 56.306 20.6164 56.0893C14.3526 55.055 8.86632 51.6434 5.16851 46.4831C1.47069 41.3229 0.0039562 35.0312 1.03875 28.7678C1.11351 28.3141 1.54332 28.0073 1.99578 28.0821C2.44951 28.1569 2.7567 28.5854 2.68151 29.0391C1.71978 34.8638 3.08355 40.7145 6.52245 45.5133C9.96135 50.3121 15.0627 53.4844 20.8882 54.4466C32.9139 56.4333 44.3111 48.2656 46.2974 36.2416C47.2591 30.417 45.8953 24.5663 42.4564 19.7674C39.0179 14.9686 33.9162 11.7963 28.0911 10.8342C27.6374 10.7594 27.3302 10.3309 27.405 9.87713C27.4802 9.42339 27.9095 9.11663 28.362 9.1914C34.6263 10.2258 40.1125 13.6373 43.8099 18.7976C47.5077 23.9579 48.9745 30.2495 47.9401 36.5129C46.9058 42.7764 43.4938 48.2622 38.3331 51.9596C34.2516 54.8837 29.463 56.4128 24.5398 56.4128Z" fill="#09A66D"/>
<path d="M19.485 20.5254C10.5966 19.0173 5.08258 7.82597 5.08258 7.82597C5.08258 7.82597 13.98 -0.920185 22.8684 0.587566C31.7568 2.09532 37.2709 13.2866 37.2709 13.2866C37.2709 13.2866 28.3735 22.0332 19.485 20.5254Z" fill="#49CB5C"/>
<path d="M22.8684 0.587563C21.171 0.2996 19.4739 0.386331 17.838 0.714028C26.3552 2.62638 31.609 13.2866 31.609 13.2866C31.609 13.2866 25.7848 19.0113 18.8531 20.399C19.0621 20.446 19.2723 20.4891 19.485 20.5254C28.3735 22.0332 37.2709 13.2866 37.2709 13.2866C37.2709 13.2866 31.7568 2.09531 22.8684 0.587563Z" fill="#07B128"/>
<path d="M36.7684 12.3573L28.0761 10.891L19.9567 0.436279C19.309 0.474304 18.6673 0.55719 18.0341 0.675964L25.6494 10.4813L19.095 9.37555L13.5023 2.13971C12.9777 2.3764 12.4675 2.62762 11.9758 2.88824L16.6742 8.9671L5.83624 7.13849C5.34961 7.5636 5.08258 7.82593 5.08258 7.82593C5.08258 7.82593 5.26117 8.18781 5.60382 8.78809L16.3828 10.6064L10.4048 15.2288C10.7897 15.6253 11.1935 16.0171 11.6156 16.3973L18.6173 10.9837L25.5562 12.1544L16.1192 19.4556C16.705 19.729 17.3104 19.9657 17.9346 20.1562L27.7907 12.5316L36.4886 13.9988C36.9927 13.5591 37.2709 13.2866 37.2709 13.2866C37.2709 13.2866 37.0987 12.9379 36.7684 12.3573Z" fill="#09A66D"/>
<path d="M43.3163 9.66235C45.7008 4.02014 53.9624 2.12061 53.9624 2.12061C53.9624 2.12061 58.3584 9.36884 55.9739 15.011C53.5899 20.6533 45.3278 22.5528 45.3278 22.5528C45.3278 22.5528 40.9318 15.3046 43.3163 9.66235Z" fill="#49CB5C"/>
<path d="M53.9625 2.12061C53.9625 2.12061 52.0839 2.55298 49.8597 3.61682C51.0009 6.03418 52.8098 10.9402 51.0893 15.011C49.8422 17.9625 46.9864 19.8898 44.5464 21.0566C44.9869 21.9897 45.3283 22.5528 45.3283 22.5528C45.3283 22.5528 53.59 20.6533 55.9744 15.011C58.3585 9.36884 53.9625 2.12061 53.9625 2.12061Z" fill="#07B128"/>
<path d="M56.6495 10.3575L50.2963 13.0226L54.4675 3.05029C54.1689 2.46069 53.9625 2.12061 53.9625 2.12061C53.9625 2.12061 53.5695 2.21118 52.9299 2.41113L48.619 12.7172L45.9457 6.13971C45.4928 6.53918 45.0656 6.97327 44.678 7.44366L47.7072 14.897L44.8618 21.6996C45.1395 22.2418 45.3279 22.5528 45.3279 22.5528C45.3279 22.5528 45.7551 22.4545 46.4421 22.2366L49.3803 15.2127L56.6469 12.1647C56.6952 11.561 56.6926 10.9556 56.6495 10.3575Z" fill="#09A66D"/>
</g>
<defs>
<clipPath id="clip0_32_143">
<rect width="56" height="56" fill="white" transform="translate(0.715698 0.412842)"/>
</clipPath>
</defs>
</svg>
